<?xml version="1.0" encoding="utf-8" standalone="no"?>
<!DOCTYPE svg PUBLIC "-//W3C//DTD SVG 1.1//EN"
  "http://www.w3.org/Graphics/SVG/1.1/DTD/svg11.dtd">
<svg xmlns:xlink="http://www.w3.org/1999/xlink" width="460.8pt" height="134.624183pt" viewBox="0 0 460.8 134.624183" xmlns="http://www.w3.org/2000/svg" version="1.1">
 <metadata>
  <rdf:RDF xmlns:dc="http://purl.org/dc/elements/1.1/" xmlns:cc="http://creativecommons.org/ns#" xmlns:rdf="http://www.w3.org/1999/02/22-rdf-syntax-ns#">
   <cc:Work>
    <dc:type rdf:resource="http://purl.org/dc/dcmitype/StillImage"/>
    <dc:date>2026-07-10T10:43:38.823567</dc:date>
    <dc:format>image/svg+xml</dc:format>
    <dc:creator>
     <cc:Agent>
      <dc:title>Matplotlib v3.10.9, https://matplotlib.org/</dc:title>
     </cc:Agent>
    </dc:creator>
   </cc:Work>
  </rdf:RDF>
 </metadata>
 <defs>
  <style type="text/css">*{stroke-linejoin: round; stroke-linecap: butt}</style>
 </defs>
 <g id="figure_1">
  <g id="patch_1">
   <path d="M 0 134.624183 
L 460.8 134.624183 
L 460.8 0 
L 0 0 
z
" style="fill: #ffffff"/>
  </g>
  <g id="axes_1">
   <g id="line2d_1">
    <path d="M 57.280645 77.343538 
L 90.667742 77.343538 
" clip-path="url(#p59cee24b31)" style="fill: none; stroke: #000000; stroke-width: 3; stroke-linecap: square"/>
   </g>
   <g id="line2d_2">
    <defs>
     <path id="m2c5fadfac7" d="M 0 4 
C 1.060812 4 2.078319 3.578535 2.828427 2.828427 
C 3.578535 2.078319 4 1.060812 4 0 
C 4 -1.060812 3.578535 -2.078319 2.828427 -2.828427 
C 2.078319 -3.578535 1.060812 -4 0 -4 
C -1.060812 -4 -2.078319 -3.578535 -2.828427 -2.828427 
C -3.578535 -2.078319 -4 -1.060812 -4 0 
C -4 1.060812 -3.578535 2.078319 -2.828427 2.828427 
C -2.078319 3.578535 -1.060812 4 0 4 
z
" style="stroke: #000000"/>
    </defs>
    <g clip-path="url(#p59cee24b31)">
     <use xlink:href="#m2c5fadfac7" x="57.280645" y="77.343538" style="fill-opacity: 0; stroke: #000000"/>
    </g>
   </g>
   <g id="line2d_3">
    <defs>
     <path id="mc891c1aeae" d="M -6 6 
L 6 6 
L 6 -6 
L -6 -6 
z
" style="stroke: #2ca02c; stroke-linejoin: miter"/>
    </defs>
    <g clip-path="url(#p59cee24b31)">
     <use xlink:href="#mc891c1aeae" x="90.667742" y="77.343538" style="fill: #2ca02c; stroke: #2ca02c; stroke-linejoin: miter"/>
    </g>
   </g>
   <g id="patch_2">
    <path d="M 88.663783 77.343538 
Q 81.484778 77.343538 76.541842 77.343538 
" style="fill: none; stroke: #ff0000; stroke-width: 2; stroke-linecap: round"/>
    <path d="M 80.541842 79.343538 
L 76.541842 77.343538 
L 80.541842 75.343538 
" style="fill: none; stroke: #ff0000; stroke-width: 2; stroke-linecap: round"/>
   </g>
   <g id="text_1">
    <!-- +y -->
    <g style="fill: #ff0000" transform="translate(83.990323 74.004829) scale(0.11 -0.11)">
     <defs>
      <path id="DejaVuSerif-2b" d="M 2931 4013 
L 2931 2259 
L 4684 2259 
L 4684 1753 
L 2931 1753 
L 2931 0 
L 2431 0 
L 2431 1753 
L 678 1753 
L 678 2259 
L 2431 2259 
L 2431 4013 
L 2931 4013 
z
" transform="scale(0.015625)"/>
      <path id="DejaVuSerif-79" d="M 1381 -609 
L 1600 -56 
L 359 2988 
L -19 2988 
L -19 3322 
L 1509 3322 
L 1509 2988 
L 978 2988 
L 1913 703 
L 2847 2988 
L 2350 2988 
L 2350 3322 
L 3597 3322 
L 3597 2988 
L 3225 2988 
L 1703 -750 
Q 1547 -1138 1356 -1280 
Q 1166 -1422 819 -1422 
Q 672 -1422 517 -1397 
Q 363 -1372 206 -1325 
L 206 -691 
L 500 -691 
Q 519 -903 608 -995 
Q 697 -1088 884 -1088 
Q 1056 -1088 1161 -992 
Q 1266 -897 1381 -609 
z
" transform="scale(0.015625)"/>
     </defs>
     <use xlink:href="#DejaVuSerif-2b"/>
     <use xlink:href="#DejaVuSerif-79" transform="translate(83.789062 0)"/>
    </g>
   </g>
   <g id="patch_3">
    <path d="M 100.016129 105.38658 
Q 100.016129 111.733816 100.016129 116.404 
" style="fill: none; stroke: #808080; stroke-width: 1.5; stroke-linecap: round"/>
    <path d="M 102.016129 112.404 
L 100.016129 116.404 
L 98.016129 112.404 
" style="fill: none; stroke: #808080; stroke-width: 1.5; stroke-linecap: round"/>
   </g>
   <g id="text_2">
    <!-- g -->
    <g style="fill: #808080" transform="translate(102.019355 112.39999) scale(0.1 -0.1)">
     <defs>
      <path id="DejaVuSerif-Italic-67" d="M 3822 3322 
L 3188 72 
Q 3044 -672 2581 -1031 
Q 2078 -1422 1381 -1422 
Q 1053 -1422 765 -1362 
Q 478 -1303 225 -1184 
L 363 -488 
L 663 -488 
Q 653 -813 834 -963 
Q 1016 -1113 1406 -1113 
Q 1913 -1113 2203 -825 
Q 2494 -544 2613 72 
L 2700 519 
Q 2472 206 2181 57 
Q 1891 -91 1525 -91 
Q 975 -91 697 281 
Q 522 516 503 841 
Q 491 1031 534 1256 
Q 750 2359 1516 2928 
Q 2169 3409 2931 3413 
Q 3631 3416 3822 3322 
z
M 3184 2988 
Q 3181 3094 2844 3094 
Q 2234 3094 1775 2625 
Q 1316 2153 1147 1297 
Q 1100 1044 1113 853 
Q 1125 659 1203 528 
Q 1356 269 1756 269 
Q 2194 269 2484 583 
Q 2775 897 2891 1497 
L 2953 1825 
L 3184 2988 
z
" transform="scale(0.015625)"/>
     </defs>
     <use xlink:href="#DejaVuSerif-Italic-67"/>
    </g>
   </g>
   <g id="text_3">
    <!-- Right -->
    <g transform="translate(45.155469 14.798438) scale(0.1 -0.1)">
     <defs>
      <path id="DejaVuSerif-52" d="M 3066 2316 
Q 3284 2256 3442 2114 
Q 3600 1972 3725 1716 
L 4403 331 
L 4972 331 
L 4972 0 
L 3872 0 
L 3144 1484 
Q 2934 1916 2759 2042 
Q 2584 2169 2278 2169 
L 1581 2169 
L 1581 331 
L 2241 331 
L 2241 0 
L 353 0 
L 353 331 
L 947 331 
L 947 4331 
L 353 4331 
L 353 4666 
L 2719 4666 
Q 3400 4666 3770 4341 
Q 4141 4016 4141 3419 
Q 4141 2938 3870 2661 
Q 3600 2384 3066 2316 
z
M 1581 2503 
L 2503 2503 
Q 2975 2503 3200 2726 
Q 3425 2950 3425 3419 
Q 3425 3888 3200 4109 
Q 2975 4331 2503 4331 
L 1581 4331 
L 1581 2503 
z
" transform="scale(0.015625)"/>
      <path id="DejaVuSerif-69" d="M 622 4353 
Q 622 4497 726 4603 
Q 831 4709 978 4709 
Q 1122 4709 1226 4603 
Q 1331 4497 1331 4353 
Q 1331 4206 1228 4103 
Q 1125 4000 978 4000 
Q 831 4000 726 4103 
Q 622 4206 622 4353 
z
M 1356 331 
L 1900 331 
L 1900 0 
L 231 0 
L 231 331 
L 781 331 
L 781 2988 
L 231 2988 
L 231 3322 
L 1356 3322 
L 1356 331 
z
" transform="scale(0.015625)"/>
      <path id="DejaVuSerif-67" d="M 3359 2988 
L 3359 72 
Q 3359 -644 2965 -1033 
Q 2572 -1422 1844 -1422 
Q 1516 -1422 1216 -1362 
Q 916 -1303 641 -1184 
L 641 -488 
L 941 -488 
Q 997 -813 1206 -963 
Q 1416 -1113 1806 -1113 
Q 2313 -1113 2548 -827 
Q 2784 -541 2784 72 
L 2784 519 
Q 2616 206 2355 57 
Q 2094 -91 1709 -91 
Q 1097 -91 708 395 
Q 319 881 319 1663 
Q 319 2444 706 2928 
Q 1094 3413 1709 3413 
Q 2094 3413 2355 3264 
Q 2616 3116 2784 2803 
L 2784 3322 
L 3909 3322 
L 3909 2988 
L 3359 2988 
z
M 2784 1825 
Q 2784 2422 2554 2737 
Q 2325 3053 1888 3053 
Q 1444 3053 1217 2703 
Q 991 2353 991 1663 
Q 991 975 1217 622 
Q 1444 269 1888 269 
Q 2325 269 2554 583 
Q 2784 897 2784 1497 
L 2784 1825 
z
" transform="scale(0.015625)"/>
      <path id="DejaVuSerif-68" d="M 263 0 
L 263 331 
L 781 331 
L 781 4531 
L 231 4531 
L 231 4863 
L 1356 4863 
L 1356 2731 
Q 1516 3069 1770 3241 
Q 2025 3413 2363 3413 
Q 2913 3413 3172 3097 
Q 3431 2781 3431 2113 
L 3431 331 
L 3944 331 
L 3944 0 
L 2356 0 
L 2356 331 
L 2853 331 
L 2853 1931 
Q 2853 2541 2704 2764 
Q 2556 2988 2175 2988 
Q 1775 2988 1565 2697 
Q 1356 2406 1356 1850 
L 1356 331 
L 1856 331 
L 1856 0 
L 263 0 
z
" transform="scale(0.015625)"/>
      <path id="DejaVuSerif-74" d="M 691 2988 
L 184 2988 
L 184 3322 
L 691 3322 
L 691 4353 
L 1269 4353 
L 1269 3322 
L 2350 3322 
L 2350 2988 
L 1269 2988 
L 1269 878 
Q 1269 456 1350 337 
Q 1431 219 1650 219 
Q 1875 219 1978 351 
Q 2081 484 2088 781 
L 2522 781 
Q 2497 328 2275 118 
Q 2053 -91 1600 -91 
Q 1103 -91 897 129 
Q 691 350 691 878 
L 691 2988 
z
" transform="scale(0.015625)"/>
     </defs>
     <use xlink:href="#DejaVuSerif-52"/>
     <use xlink:href="#DejaVuSerif-69" transform="translate(75.292969 0)"/>
     <use xlink:href="#DejaVuSerif-67" transform="translate(107.275391 0)"/>
     <use xlink:href="#DejaVuSerif-68" transform="translate(171.289062 0)"/>
     <use xlink:href="#DejaVuSerif-74" transform="translate(235.693359 0)"/>
    </g>
    <!-- $a_y$ = 0.00 m/s$^2$ -->
    <g transform="translate(22.15 27.940313) scale(0.1 -0.1)">
     <defs>
      <path id="DejaVuSans-Oblique-61" d="M 3438 1997 
L 3047 0 
L 2472 0 
L 2578 531 
Q 2325 219 2001 64 
Q 1678 -91 1281 -91 
Q 834 -91 548 182 
Q 263 456 263 884 
Q 263 1497 752 1853 
Q 1241 2209 2100 2209 
L 2900 2209 
L 2931 2363 
Q 2938 2388 2941 2417 
Q 2944 2447 2944 2509 
Q 2944 2788 2717 2942 
Q 2491 3097 2081 3097 
Q 1800 3097 1504 3025 
Q 1209 2953 897 2809 
L 997 3341 
Q 1322 3463 1633 3523 
Q 1944 3584 2234 3584 
Q 2853 3584 3176 3315 
Q 3500 3047 3500 2534 
Q 3500 2431 3484 2292 
Q 3469 2153 3438 1997 
z
M 2816 1759 
L 2241 1759 
Q 1534 1759 1195 1570 
Q 856 1381 856 984 
Q 856 709 1029 553 
Q 1203 397 1509 397 
Q 1978 397 2328 733 
Q 2678 1069 2791 1631 
L 2816 1759 
z
" transform="scale(0.015625)"/>
      <path id="DejaVuSans-Oblique-79" d="M 1588 -325 
Q 1188 -997 936 -1164 
Q 684 -1331 294 -1331 
L -159 -1331 
L -63 -850 
L 269 -850 
Q 509 -850 678 -719 
Q 847 -588 1056 -206 
L 1234 128 
L 459 3500 
L 1069 3500 
L 1650 819 
L 3256 3500 
L 3859 3500 
L 1588 -325 
z
" transform="scale(0.015625)"/>
      <path id="DejaVuSerif-20" transform="scale(0.015625)"/>
      <path id="DejaVuSerif-3d" d="M 678 2894 
L 4684 2894 
L 4684 2394 
L 678 2394 
L 678 2894 
z
M 678 1619 
L 4684 1619 
L 4684 1119 
L 678 1119 
L 678 1619 
z
" transform="scale(0.015625)"/>
      <path id="DejaVuSerif-30" d="M 2034 219 
Q 2513 219 2750 744 
Q 2988 1269 2988 2328 
Q 2988 3391 2750 3916 
Q 2513 4441 2034 4441 
Q 1556 4441 1318 3916 
Q 1081 3391 1081 2328 
Q 1081 1269 1318 744 
Q 1556 219 2034 219 
z
M 2034 -91 
Q 1275 -91 848 546 
Q 422 1184 422 2328 
Q 422 3475 848 4112 
Q 1275 4750 2034 4750 
Q 2797 4750 3222 4112 
Q 3647 3475 3647 2328 
Q 3647 1184 3222 546 
Q 2797 -91 2034 -91 
z
" transform="scale(0.015625)"/>
      <path id="DejaVuSerif-2e" d="M 603 325 
Q 603 500 722 622 
Q 841 744 1019 744 
Q 1191 744 1312 622 
Q 1434 500 1434 325 
Q 1434 153 1312 31 
Q 1191 -91 1019 -91 
Q 841 -91 722 29 
Q 603 150 603 325 
z
" transform="scale(0.015625)"/>
      <path id="DejaVuSerif-6d" d="M 3316 2675 
Q 3481 3041 3739 3227 
Q 3997 3413 4341 3413 
Q 4863 3413 5119 3089 
Q 5375 2766 5375 2113 
L 5375 331 
L 5894 331 
L 5894 0 
L 4300 0 
L 4300 331 
L 4800 331 
L 4800 2047 
Q 4800 2556 4650 2772 
Q 4500 2988 4153 2988 
Q 3769 2988 3567 2697 
Q 3366 2406 3366 1850 
L 3366 331 
L 3866 331 
L 3866 0 
L 2291 0 
L 2291 331 
L 2791 331 
L 2791 2069 
Q 2791 2566 2641 2777 
Q 2491 2988 2144 2988 
Q 1759 2988 1557 2697 
Q 1356 2406 1356 1850 
L 1356 331 
L 1856 331 
L 1856 0 
L 263 0 
L 263 331 
L 781 331 
L 781 2994 
L 231 2994 
L 231 3322 
L 1356 3322 
L 1356 2731 
Q 1516 3063 1762 3238 
Q 2009 3413 2322 3413 
Q 2709 3413 2968 3220 
Q 3228 3028 3316 2675 
z
" transform="scale(0.015625)"/>
      <path id="DejaVuSerif-2f" d="M 1656 4666 
L 2156 4666 
L 500 -594 
L 0 -594 
L 1656 4666 
z
" transform="scale(0.015625)"/>
      <path id="DejaVuSerif-73" d="M 359 184 
L 359 959 
L 691 959 
Q 703 588 923 403 
Q 1144 219 1575 219 
Q 1963 219 2166 364 
Q 2369 509 2369 788 
Q 2369 1006 2220 1140 
Q 2072 1275 1594 1428 
L 1178 1569 
Q 750 1706 558 1912 
Q 366 2119 366 2438 
Q 366 2894 700 3153 
Q 1034 3413 1625 3413 
Q 1888 3413 2178 3344 
Q 2469 3275 2778 3144 
L 2778 2419 
L 2447 2419 
Q 2434 2741 2221 2922 
Q 2009 3103 1644 3103 
Q 1281 3103 1095 2975 
Q 909 2847 909 2591 
Q 909 2381 1050 2254 
Q 1191 2128 1613 1997 
L 2069 1856 
Q 2541 1709 2748 1489 
Q 2956 1269 2956 922 
Q 2956 450 2595 179 
Q 2234 -91 1600 -91 
Q 1278 -91 972 -22 
Q 666 47 359 184 
z
" transform="scale(0.015625)"/>
      <path id="DejaVuSans-32" d="M 1228 531 
L 3431 531 
L 3431 0 
L 469 0 
L 469 531 
Q 828 903 1448 1529 
Q 2069 2156 2228 2338 
Q 2531 2678 2651 2914 
Q 2772 3150 2772 3378 
Q 2772 3750 2511 3984 
Q 2250 4219 1831 4219 
Q 1534 4219 1204 4116 
Q 875 4013 500 3803 
L 500 4441 
Q 881 4594 1212 4672 
Q 1544 4750 1819 4750 
Q 2544 4750 2975 4387 
Q 3406 4025 3406 3419 
Q 3406 3131 3298 2873 
Q 3191 2616 2906 2266 
Q 2828 2175 2409 1742 
Q 1991 1309 1228 531 
z
" transform="scale(0.015625)"/>
     </defs>
     <use xlink:href="#DejaVuSans-Oblique-61" transform="translate(0 0.765625)"/>
     <use xlink:href="#DejaVuSans-Oblique-79" transform="translate(61.279297 -15.640625) scale(0.7)"/>
     <use xlink:href="#DejaVuSerif-20" transform="translate(105.439453 0.765625)"/>
     <use xlink:href="#DejaVuSerif-3d" transform="translate(137.226562 0.765625)"/>
     <use xlink:href="#DejaVuSerif-20" transform="translate(221.015625 0.765625)"/>
     <use xlink:href="#DejaVuSerif-30" transform="translate(252.802734 0.765625)"/>
     <use xlink:href="#DejaVuSerif-2e" transform="translate(316.425781 0.765625)"/>
     <use xlink:href="#DejaVuSerif-30" transform="translate(348.212891 0.765625)"/>
     <use xlink:href="#DejaVuSerif-30" transform="translate(411.835938 0.765625)"/>
     <use xlink:href="#DejaVuSerif-20" transform="translate(475.458984 0.765625)"/>
     <use xlink:href="#DejaVuSerif-6d" transform="translate(507.246094 0.765625)"/>
     <use xlink:href="#DejaVuSerif-2f" transform="translate(602.070312 0.765625)"/>
     <use xlink:href="#DejaVuSerif-73" transform="translate(635.761719 0.765625)"/>
     <use xlink:href="#DejaVuSans-32" transform="translate(688.037109 39.046875) scale(0.7)"/>
    </g>
   </g>
  </g>
  <g id="axes_2">
   <g id="line2d_4">
    <path d="M 171.580645 77.343538 
L 171.580645 43.956442 
" clip-path="url(#p21018546fd)" style="fill: none; stroke: #000000; stroke-width: 3; stroke-linecap: square"/>
   </g>
   <g id="line2d_5">
    <g clip-path="url(#p21018546fd)">
     <use xlink:href="#m2c5fadfac7" x="171.580645" y="77.343538" style="fill-opacity: 0; stroke: #000000"/>
    </g>
   </g>
   <g id="line2d_6">
    <g clip-path="url(#p21018546fd)">
     <use xlink:href="#mc891c1aeae" x="171.580645" y="43.956442" style="fill: #2ca02c; stroke: #2ca02c; stroke-linejoin: miter"/>
    </g>
   </g>
   <g id="patch_4">
    <path d="M 171.580645 45.960401 
Q 171.580645 53.139405 171.580645 58.082342 
" style="fill: none; stroke: #ff0000; stroke-width: 2; stroke-linecap: round"/>
    <path d="M 173.580645 54.082342 
L 171.580645 58.082342 
L 169.580645 54.082342 
" style="fill: none; stroke: #ff0000; stroke-width: 2; stroke-linecap: round"/>
   </g>
   <g id="text_4">
    <!-- +y -->
    <g style="fill: #ff0000" transform="translate(177.590323 53.304829) scale(0.11 -0.11)">
     <use xlink:href="#DejaVuSerif-2b"/>
     <use xlink:href="#DejaVuSerif-79" transform="translate(83.789062 0)"/>
    </g>
   </g>
   <g id="patch_5">
    <path d="M 214.316129 105.38658 
Q 214.316129 111.733816 214.316129 116.404 
" style="fill: none; stroke: #808080; stroke-width: 1.5; stroke-linecap: round"/>
    <path d="M 216.316129 112.404 
L 214.316129 116.404 
L 212.316129 112.404 
" style="fill: none; stroke: #808080; stroke-width: 1.5; stroke-linecap: round"/>
   </g>
   <g id="text_5">
    <!-- g -->
    <g style="fill: #808080" transform="translate(216.319355 112.39999) scale(0.1 -0.1)">
     <use xlink:href="#DejaVuSerif-Italic-67"/>
    </g>
   </g>
   <g id="text_6">
    <!-- Up -->
    <g transform="translate(165.835156 14.940625) scale(0.1 -0.1)">
     <defs>
      <path id="DejaVuSerif-55" d="M 897 4331 
L 300 4331 
L 300 4666 
L 2125 4666 
L 2125 4331 
L 1528 4331 
L 1528 1919 
Q 1528 1025 1820 672 
Q 2113 319 2828 319 
Q 3544 319 3836 672 
Q 4128 1025 4128 1919 
L 4128 4331 
L 3531 4331 
L 3531 4666 
L 5106 4666 
L 5106 4331 
L 4513 4331 
L 4513 1856 
Q 4513 791 4103 350 
Q 3694 -91 2713 -91 
Q 1731 -91 1314 353 
Q 897 797 897 1856 
L 897 4331 
z
" transform="scale(0.015625)"/>
      <path id="DejaVuSerif-70" d="M 1313 1825 
L 1313 1497 
Q 1313 897 1542 583 
Q 1772 269 2209 269 
Q 2650 269 2876 622 
Q 3103 975 3103 1663 
Q 3103 2353 2876 2703 
Q 2650 3053 2209 3053 
Q 1772 3053 1542 2737 
Q 1313 2422 1313 1825 
z
M 738 2988 
L 184 2988 
L 184 3322 
L 1313 3322 
L 1313 2803 
Q 1481 3116 1742 3264 
Q 2003 3413 2388 3413 
Q 3000 3413 3387 2928 
Q 3775 2444 3775 1663 
Q 3775 881 3387 395 
Q 3000 -91 2388 -91 
Q 2003 -91 1742 57 
Q 1481 206 1313 519 
L 1313 -997 
L 1856 -997 
L 1856 -1331 
L 184 -1331 
L 184 -997 
L 738 -997 
L 738 2988 
z
" transform="scale(0.015625)"/>
     </defs>
     <use xlink:href="#DejaVuSerif-55"/>
     <use xlink:href="#DejaVuSerif-70" transform="translate(84.277344 0)"/>
    </g>
    <!-- $a_y$ = +9.81 m/s$^2$ -->
    <g transform="translate(132.45 27.940313) scale(0.1 -0.1)">
     <defs>
      <path id="DejaVuSerif-39" d="M 2994 2091 
Q 2784 1856 2512 1740 
Q 2241 1625 1900 1625 
Q 1206 1625 804 2044 
Q 403 2463 403 3188 
Q 403 3897 839 4323 
Q 1275 4750 2003 4750 
Q 2794 4750 3217 4161 
Q 3641 3572 3641 2478 
Q 3641 1253 3137 581 
Q 2634 -91 1722 -91 
Q 1475 -91 1203 -44 
Q 931 3 647 97 
L 647 872 
L 997 872 
Q 1038 556 1241 387 
Q 1444 219 1784 219 
Q 2391 219 2687 676 
Q 2984 1134 2994 2091 
z
M 1978 4441 
Q 1534 4441 1298 4117 
Q 1063 3794 1063 3188 
Q 1063 2581 1298 2256 
Q 1534 1931 1978 1931 
Q 2422 1931 2658 2245 
Q 2894 2559 2894 3150 
Q 2894 3772 2656 4106 
Q 2419 4441 1978 4441 
z
" transform="scale(0.015625)"/>
      <path id="DejaVuSerif-38" d="M 2981 1275 
Q 2981 1775 2732 2051 
Q 2484 2328 2034 2328 
Q 1584 2328 1336 2051 
Q 1088 1775 1088 1275 
Q 1088 772 1336 495 
Q 1584 219 2034 219 
Q 2484 219 2732 495 
Q 2981 772 2981 1275 
z
M 2853 3541 
Q 2853 3966 2637 4203 
Q 2422 4441 2034 4441 
Q 1650 4441 1433 4203 
Q 1216 3966 1216 3541 
Q 1216 3113 1433 2875 
Q 1650 2638 2034 2638 
Q 2422 2638 2637 2875 
Q 2853 3113 2853 3541 
z
M 2516 2484 
Q 3047 2413 3344 2092 
Q 3641 1772 3641 1275 
Q 3641 619 3225 264 
Q 2809 -91 2034 -91 
Q 1263 -91 845 264 
Q 428 619 428 1275 
Q 428 1772 725 2092 
Q 1022 2413 1556 2484 
Q 1084 2569 832 2842 
Q 581 3116 581 3541 
Q 581 4103 968 4426 
Q 1356 4750 2034 4750 
Q 2713 4750 3100 4426 
Q 3488 4103 3488 3541 
Q 3488 3116 3236 2842 
Q 2984 2569 2516 2484 
z
" transform="scale(0.015625)"/>
      <path id="DejaVuSerif-31" d="M 909 0 
L 909 331 
L 1722 331 
L 1722 4213 
L 781 3603 
L 781 4013 
L 1919 4750 
L 2350 4750 
L 2350 331 
L 3163 331 
L 3163 0 
L 909 0 
z
" transform="scale(0.015625)"/>
     </defs>
     <use xlink:href="#DejaVuSans-Oblique-61" transform="translate(0 0.765625)"/>
     <use xlink:href="#DejaVuSans-Oblique-79" transform="translate(61.279297 -15.640625) scale(0.7)"/>
     <use xlink:href="#DejaVuSerif-20" transform="translate(105.439453 0.765625)"/>
     <use xlink:href="#DejaVuSerif-3d" transform="translate(137.226562 0.765625)"/>
     <use xlink:href="#DejaVuSerif-20" transform="translate(221.015625 0.765625)"/>
     <use xlink:href="#DejaVuSerif-2b" transform="translate(252.802734 0.765625)"/>
     <use xlink:href="#DejaVuSerif-39" transform="translate(336.591797 0.765625)"/>
     <use xlink:href="#DejaVuSerif-2e" transform="translate(400.214844 0.765625)"/>
     <use xlink:href="#DejaVuSerif-38" transform="translate(428.376953 0.765625)"/>
     <use xlink:href="#DejaVuSerif-31" transform="translate(492 0.765625)"/>
     <use xlink:href="#DejaVuSerif-20" transform="translate(555.623047 0.765625)"/>
     <use xlink:href="#DejaVuSerif-6d" transform="translate(587.410156 0.765625)"/>
     <use xlink:href="#DejaVuSerif-2f" transform="translate(682.234375 0.765625)"/>
     <use xlink:href="#DejaVuSerif-73" transform="translate(715.925781 0.765625)"/>
     <use xlink:href="#DejaVuSans-32" transform="translate(768.201172 39.046875) scale(0.7)"/>
    </g>
   </g>
  </g>
  <g id="axes_3">
   <g id="line2d_7">
    <path d="M 285.880645 77.343538 
L 252.493548 77.343538 
" clip-path="url(#p2e7ec3848f)" style="fill: none; stroke: #000000; stroke-width: 3; stroke-linecap: square"/>
   </g>
   <g id="line2d_8">
    <g clip-path="url(#p2e7ec3848f)">
     <use xlink:href="#m2c5fadfac7" x="285.880645" y="77.343538" style="fill-opacity: 0; stroke: #000000"/>
    </g>
   </g>
   <g id="line2d_9">
    <g clip-path="url(#p2e7ec3848f)">
     <use xlink:href="#mc891c1aeae" x="252.493548" y="77.343538" style="fill: #2ca02c; stroke: #2ca02c; stroke-linejoin: miter"/>
    </g>
   </g>
   <g id="patch_6">
    <path d="M 254.497508 77.343538 
Q 261.676512 77.343538 266.619448 77.343538 
" style="fill: none; stroke: #ff0000; stroke-width: 2; stroke-linecap: round"/>
    <path d="M 262.619448 75.343538 
L 266.619448 77.343538 
L 262.619448 79.343538 
" style="fill: none; stroke: #ff0000; stroke-width: 2; stroke-linecap: round"/>
   </g>
   <g id="text_7">
    <!-- +y -->
    <g style="fill: #ff0000" transform="translate(271.190323 74.004829) scale(0.11 -0.11)">
     <use xlink:href="#DejaVuSerif-2b"/>
     <use xlink:href="#DejaVuSerif-79" transform="translate(83.789062 0)"/>
    </g>
   </g>
   <g id="patch_7">
    <path d="M 328.616129 105.38658 
Q 328.616129 111.733816 328.616129 116.404 
" style="fill: none; stroke: #808080; stroke-width: 1.5; stroke-linecap: round"/>
    <path d="M 330.616129 112.404 
L 328.616129 116.404 
L 326.616129 112.404 
" style="fill: none; stroke: #808080; stroke-width: 1.5; stroke-linecap: round"/>
   </g>
   <g id="text_8">
    <!-- g -->
    <g style="fill: #808080" transform="translate(330.619355 112.39999) scale(0.1 -0.1)">
     <use xlink:href="#DejaVuSerif-Italic-67"/>
    </g>
   </g>
   <g id="text_9">
    <!-- Left -->
    <g transform="translate(277.410156 14.940625) scale(0.1 -0.1)">
     <defs>
      <path id="DejaVuSerif-4c" d="M 353 0 
L 353 331 
L 947 331 
L 947 4331 
L 353 4331 
L 353 4666 
L 2175 4666 
L 2175 4331 
L 1581 4331 
L 1581 384 
L 3713 384 
L 3713 1166 
L 4097 1166 
L 4097 0 
L 353 0 
z
" transform="scale(0.015625)"/>
      <path id="DejaVuSerif-65" d="M 3469 1600 
L 991 1600 
L 991 1575 
Q 991 903 1244 561 
Q 1497 219 1991 219 
Q 2369 219 2611 417 
Q 2853 616 2950 1006 
L 3413 1006 
Q 3275 459 2904 184 
Q 2534 -91 1931 -91 
Q 1203 -91 761 389 
Q 319 869 319 1663 
Q 319 2450 753 2931 
Q 1188 3413 1894 3413 
Q 2647 3413 3050 2948 
Q 3453 2484 3469 1600 
z
M 2791 1931 
Q 2772 2513 2545 2808 
Q 2319 3103 1894 3103 
Q 1497 3103 1269 2806 
Q 1041 2509 991 1931 
L 2791 1931 
z
" transform="scale(0.015625)"/>
      <path id="DejaVuSerif-66" d="M 2753 4078 
L 2450 4078 
Q 2447 4313 2317 4434 
Q 2188 4556 1941 4556 
Q 1619 4556 1487 4379 
Q 1356 4203 1356 3750 
L 1356 3322 
L 2284 3322 
L 2284 2988 
L 1356 2988 
L 1356 331 
L 2094 331 
L 2094 0 
L 231 0 
L 231 331 
L 781 331 
L 781 2988 
L 231 2988 
L 231 3322 
L 781 3322 
L 781 3738 
Q 781 4294 1070 4578 
Q 1359 4863 1919 4863 
Q 2128 4863 2337 4825 
Q 2547 4788 2753 4709 
L 2753 4078 
z
" transform="scale(0.015625)"/>
     </defs>
     <use xlink:href="#DejaVuSerif-4c"/>
     <use xlink:href="#DejaVuSerif-65" transform="translate(66.40625 0)"/>
     <use xlink:href="#DejaVuSerif-66" transform="translate(125.585938 0)"/>
     <use xlink:href="#DejaVuSerif-74" transform="translate(162.597656 0)"/>
    </g>
    <!-- $a_y$ = 0.00 m/s$^2$ -->
    <g transform="translate(250.75 27.940313) scale(0.1 -0.1)">
     <use xlink:href="#DejaVuSans-Oblique-61" transform="translate(0 0.765625)"/>
     <use xlink:href="#DejaVuSans-Oblique-79" transform="translate(61.279297 -15.640625) scale(0.7)"/>
     <use xlink:href="#DejaVuSerif-20" transform="translate(105.439453 0.765625)"/>
     <use xlink:href="#DejaVuSerif-3d" transform="translate(137.226562 0.765625)"/>
     <use xlink:href="#DejaVuSerif-20" transform="translate(221.015625 0.765625)"/>
     <use xlink:href="#DejaVuSerif-30" transform="translate(252.802734 0.765625)"/>
     <use xlink:href="#DejaVuSerif-2e" transform="translate(316.425781 0.765625)"/>
     <use xlink:href="#DejaVuSerif-30" transform="translate(348.212891 0.765625)"/>
     <use xlink:href="#DejaVuSerif-30" transform="translate(411.835938 0.765625)"/>
     <use xlink:href="#DejaVuSerif-20" transform="translate(475.458984 0.765625)"/>
     <use xlink:href="#DejaVuSerif-6d" transform="translate(507.246094 0.765625)"/>
     <use xlink:href="#DejaVuSerif-2f" transform="translate(602.070312 0.765625)"/>
     <use xlink:href="#DejaVuSerif-73" transform="translate(635.761719 0.765625)"/>
     <use xlink:href="#DejaVuSans-32" transform="translate(688.037109 39.046875) scale(0.7)"/>
    </g>
   </g>
  </g>
  <g id="axes_4">
   <g id="line2d_10">
    <path d="M 400.180645 77.343538 
L 400.180645 110.730635 
" clip-path="url(#pacfcdbc932)" style="fill: none; stroke: #000000; stroke-width: 3; stroke-linecap: square"/>
   </g>
   <g id="line2d_11">
    <g clip-path="url(#pacfcdbc932)">
     <use xlink:href="#m2c5fadfac7" x="400.180645" y="77.343538" style="fill-opacity: 0; stroke: #000000"/>
    </g>
   </g>
   <g id="line2d_12">
    <g clip-path="url(#pacfcdbc932)">
     <use xlink:href="#mc891c1aeae" x="400.180645" y="110.730635" style="fill: #2ca02c; stroke: #2ca02c; stroke-linejoin: miter"/>
    </g>
   </g>
   <g id="patch_8">
    <path d="M 400.180645 108.726676 
Q 400.180645 101.547671 400.180645 96.604735 
" style="fill: none; stroke: #ff0000; stroke-width: 2; stroke-linecap: round"/>
    <path d="M 398.180645 100.604735 
L 400.180645 96.604735 
L 402.180645 100.604735 
" style="fill: none; stroke: #ff0000; stroke-width: 2; stroke-linecap: round"/>
   </g>
   <g id="text_10">
    <!-- +y -->
    <g style="fill: #ff0000" transform="translate(406.190323 94.704829) scale(0.11 -0.11)">
     <use xlink:href="#DejaVuSerif-2b"/>
     <use xlink:href="#DejaVuSerif-79" transform="translate(83.789062 0)"/>
    </g>
   </g>
   <g id="patch_9">
    <path d="M 442.916129 105.38658 
Q 442.916129 111.733816 442.916129 116.404 
" style="fill: none; stroke: #808080; stroke-width: 1.5; stroke-linecap: round"/>
    <path d="M 444.916129 112.404 
L 442.916129 116.404 
L 440.916129 112.404 
" style="fill: none; stroke: #808080; stroke-width: 1.5; stroke-linecap: round"/>
   </g>
   <g id="text_11">
    <!-- g -->
    <g style="fill: #808080" transform="translate(444.919355 112.39999) scale(0.1 -0.1)">
     <use xlink:href="#DejaVuSerif-Italic-67"/>
    </g>
   </g>
   <g id="text_12">
    <!-- Down -->
    <g transform="translate(387.33125 14.940625) scale(0.1 -0.1)">
     <defs>
      <path id="DejaVuSerif-44" d="M 1581 331 
L 2163 331 
Q 3072 331 3558 850 
Q 4044 1369 4044 2338 
Q 4044 3306 3559 3818 
Q 3075 4331 2163 4331 
L 1581 4331 
L 1581 331 
z
M 353 0 
L 353 331 
L 947 331 
L 947 4331 
L 353 4331 
L 353 4666 
L 2209 4666 
Q 3416 4666 4089 4050 
Q 4763 3434 4763 2338 
Q 4763 1238 4088 619 
Q 3413 0 2209 0 
L 353 0 
z
" transform="scale(0.015625)"/>
      <path id="DejaVuSerif-6f" d="M 1925 219 
Q 2388 219 2623 584 
Q 2859 950 2859 1663 
Q 2859 2375 2623 2739 
Q 2388 3103 1925 3103 
Q 1463 3103 1227 2739 
Q 991 2375 991 1663 
Q 991 950 1228 584 
Q 1466 219 1925 219 
z
M 1925 -91 
Q 1200 -91 759 389 
Q 319 869 319 1663 
Q 319 2456 758 2934 
Q 1197 3413 1925 3413 
Q 2653 3413 3092 2934 
Q 3531 2456 3531 1663 
Q 3531 869 3092 389 
Q 2653 -91 1925 -91 
z
" transform="scale(0.015625)"/>
      <path id="DejaVuSerif-77" d="M 3072 3322 
L 3922 728 
L 4672 2988 
L 4191 2988 
L 4191 3322 
L 5394 3322 
L 5394 2988 
L 5025 2988 
L 4038 0 
L 3559 0 
L 2741 2484 
L 1919 0 
L 1459 0 
L 475 2988 
L 103 2988 
L 103 3322 
L 1606 3322 
L 1606 2988 
L 1069 2988 
L 1813 728 
L 2669 3322 
L 3072 3322 
z
" transform="scale(0.015625)"/>
      <path id="DejaVuSerif-6e" d="M 263 0 
L 263 331 
L 781 331 
L 781 2988 
L 231 2988 
L 231 3322 
L 1356 3322 
L 1356 2731 
Q 1516 3069 1770 3241 
Q 2025 3413 2363 3413 
Q 2913 3413 3172 3097 
Q 3431 2781 3431 2113 
L 3431 331 
L 3944 331 
L 3944 0 
L 2356 0 
L 2356 331 
L 2853 331 
L 2853 1931 
Q 2853 2541 2703 2767 
Q 2553 2994 2175 2994 
Q 1775 2994 1565 2701 
Q 1356 2409 1356 1850 
L 1356 331 
L 1856 331 
L 1856 0 
L 263 0 
z
" transform="scale(0.015625)"/>
     </defs>
     <use xlink:href="#DejaVuSerif-44"/>
     <use xlink:href="#DejaVuSerif-6f" transform="translate(80.175781 0)"/>
     <use xlink:href="#DejaVuSerif-77" transform="translate(140.380859 0)"/>
     <use xlink:href="#DejaVuSerif-6e" transform="translate(225.976562 0)"/>
    </g>
    <!-- $a_y$ = -9.81 m/s$^2$ -->
    <g transform="translate(363.55 27.940313) scale(0.1 -0.1)">
     <defs>
      <path id="DejaVuSerif-2d" d="M 281 1959 
L 1881 1959 
L 1881 1472 
L 281 1472 
L 281 1959 
z
" transform="scale(0.015625)"/>
     </defs>
     <use xlink:href="#DejaVuSans-Oblique-61" transform="translate(0 0.765625)"/>
     <use xlink:href="#DejaVuSans-Oblique-79" transform="translate(61.279297 -15.640625) scale(0.7)"/>
     <use xlink:href="#DejaVuSerif-20" transform="translate(105.439453 0.765625)"/>
     <use xlink:href="#DejaVuSerif-3d" transform="translate(137.226562 0.765625)"/>
     <use xlink:href="#DejaVuSerif-20" transform="translate(221.015625 0.765625)"/>
     <use xlink:href="#DejaVuSerif-2d" transform="translate(252.802734 0.765625)"/>
     <use xlink:href="#DejaVuSerif-39" transform="translate(286.591797 0.765625)"/>
     <use xlink:href="#DejaVuSerif-2e" transform="translate(350.214844 0.765625)"/>
     <use xlink:href="#DejaVuSerif-38" transform="translate(378.376953 0.765625)"/>
     <use xlink:href="#DejaVuSerif-31" transform="translate(442 0.765625)"/>
     <use xlink:href="#DejaVuSerif-20" transform="translate(505.623047 0.765625)"/>
     <use xlink:href="#DejaVuSerif-6d" transform="translate(537.410156 0.765625)"/>
     <use xlink:href="#DejaVuSerif-2f" transform="translate(632.234375 0.765625)"/>
     <use xlink:href="#DejaVuSerif-73" transform="translate(665.925781 0.765625)"/>
     <use xlink:href="#DejaVuSans-32" transform="translate(718.201172 39.046875) scale(0.7)"/>
    </g>
   </g>
  </g>
 </g>
 <defs>
  <clipPath id="p59cee24b31">
   <rect x="7.2" y="33.940313" width="103.5" height="93.483871"/>
  </clipPath>
  <clipPath id="p21018546fd">
   <rect x="121.5" y="33.940313" width="103.5" height="93.483871"/>
  </clipPath>
  <clipPath id="p2e7ec3848f">
   <rect x="235.8" y="33.940313" width="103.5" height="93.483871"/>
  </clipPath>
  <clipPath id="pacfcdbc932">
   <rect x="350.1" y="33.940313" width="103.5" height="93.483871"/>
  </clipPath>
 </defs>
</svg>
