<?xml version="1.0" encoding="utf-8" standalone="no"?>
<!DOCTYPE svg PUBLIC "-//W3C//DTD SVG 1.1//EN"
  "http://www.w3.org/Graphics/SVG/1.1/DTD/svg11.dtd">
<svg xmlns:xlink="http://www.w3.org/1999/xlink" width="439.589933pt" height="191.808pt" viewBox="0 0 439.589933 191.808" xmlns="http://www.w3.org/2000/svg" version="1.1">
 <metadata>
  <rdf:RDF xmlns:dc="http://purl.org/dc/elements/1.1/" xmlns:cc="http://creativecommons.org/ns#" xmlns:rdf="http://www.w3.org/1999/02/22-rdf-syntax-ns#">
   <cc:Work>
    <dc:type rdf:resource="http://purl.org/dc/dcmitype/StillImage"/>
    <dc:date>2026-07-17T17:47:48.742499</dc:date>
    <dc:format>image/svg+xml</dc:format>
    <dc:creator>
     <cc:Agent>
      <dc:title>Matplotlib v3.10.9, https://matplotlib.org/</dc:title>
     </cc:Agent>
    </dc:creator>
   </cc:Work>
  </rdf:RDF>
 </metadata>
 <defs>
  <style type="text/css">*{stroke-linejoin: round; stroke-linecap: butt}</style>
 </defs>
 <g id="figure_1">
  <g id="patch_1">
   <path d="M 0 191.808 
L 439.589933 191.808 
L 439.589933 0 
L 0 0 
z
" style="fill: #ffffff"/>
  </g>
  <g id="axes_1">
   <g id="line2d_1">
    <path d="M 33.107143 73.728 
L 84.921429 73.728 
" clip-path="url(#p68244977c4)" style="fill: none; stroke: #000000; stroke-width: 1.5; stroke-linecap: square"/>
   </g>
   <g id="line2d_2">
    <defs>
     <path id="mc3f9c6f1ca" d="M -4 4 
L 4 4 
L 4 -4 
L -4 -4 
z
" style="stroke: #000000; stroke-linejoin: miter"/>
    </defs>
    <g clip-path="url(#p68244977c4)">
     <use xlink:href="#mc3f9c6f1ca" x="33.107143" y="73.728" style="stroke: #000000; stroke-linejoin: miter"/>
    </g>
   </g>
   <g id="line2d_3">
    <path d="M 84.921429 73.728 
L 92.477679 65.9664 
L 100.033929 81.4896 
L 107.590179 65.9664 
L 115.146429 81.4896 
L 122.702679 65.9664 
L 130.258929 81.4896 
L 137.815179 65.9664 
L 145.371429 81.4896 
L 152.927679 65.9664 
L 160.483929 81.4896 
L 168.040179 65.9664 
L 175.596429 73.728 
" clip-path="url(#p68244977c4)" style="fill: none; stroke: #000000; stroke-width: 1.5; stroke-linecap: square"/>
   </g>
   <g id="line2d_4">
    <path d="M 175.596429 73.728 
L 227.410714 73.728 
" clip-path="url(#p68244977c4)" style="fill: none; stroke: #000000; stroke-width: 1.5; stroke-linecap: square"/>
   </g>
   <g id="line2d_5">
    <path d="M 227.410714 62.64 
L 250.079464 73.728 
L 227.410714 84.816 
L 227.410714 62.64 
" clip-path="url(#p68244977c4)" style="fill: none; stroke: #000000; stroke-width: 1.5; stroke-linecap: square"/>
   </g>
   <g id="line2d_6">
    <path d="M 250.079464 84.816 
L 250.079464 62.64 
" clip-path="url(#p68244977c4)" style="fill: none; stroke: #000000; stroke-width: 2; stroke-linecap: square"/>
   </g>
   <g id="line2d_7">
    <path d="M 250.079464 73.728 
L 305.132143 73.728 
" clip-path="url(#p68244977c4)" style="fill: none; stroke: #000000; stroke-width: 1.5; stroke-linecap: square"/>
   </g>
   <g id="line2d_8">
    <path d="M 59.014286 73.728 
L 59.014286 32.148 
" clip-path="url(#p68244977c4)" style="fill: none; stroke: #000000; stroke-width: 1.2; stroke-linecap: square"/>
   </g>
   <g id="line2d_9">
    <defs>
     <path id="m0b8d15678e" d="M 0 3 
C 0.795609 3 1.55874 2.683901 2.12132 2.12132 
C 2.683901 1.55874 3 0.795609 3 0 
C 3 -0.795609 2.683901 -1.55874 2.12132 -2.12132 
C 1.55874 -2.683901 0.795609 -3 0 -3 
C -0.795609 -3 -1.55874 -2.683901 -2.12132 -2.12132 
C -2.683901 -1.55874 -3 -0.795609 -3 0 
C -3 0.795609 -2.683901 1.55874 -2.12132 2.12132 
C -1.55874 2.683901 -0.795609 3 0 3 
z
" style="stroke: #000000"/>
    </defs>
    <g clip-path="url(#p68244977c4)">
     <use xlink:href="#m0b8d15678e" x="59.014286" y="32.148" style="fill: #ffffff; stroke: #000000"/>
    </g>
   </g>
   <g id="line2d_10">
    <path d="M 33.107143 145.8 
L 84.921429 145.8 
" clip-path="url(#p68244977c4)" style="fill: none; stroke: #000000; stroke-width: 1.5; stroke-linecap: square"/>
   </g>
   <g id="line2d_11">
    <g clip-path="url(#p68244977c4)">
     <use xlink:href="#mc3f9c6f1ca" x="33.107143" y="145.8" style="stroke: #000000; stroke-linejoin: miter"/>
    </g>
   </g>
   <g id="line2d_12">
    <path d="M 84.921429 145.8 
L 92.477679 138.0384 
L 100.033929 153.5616 
L 107.590179 138.0384 
L 115.146429 153.5616 
L 122.702679 138.0384 
L 130.258929 153.5616 
L 137.815179 138.0384 
L 145.371429 153.5616 
L 152.927679 138.0384 
L 160.483929 153.5616 
L 168.040179 138.0384 
L 175.596429 145.8 
" clip-path="url(#p68244977c4)" style="fill: none; stroke: #000000; stroke-width: 1.5; stroke-linecap: square"/>
   </g>
   <g id="line2d_13">
    <path d="M 175.596429 145.8 
L 227.410714 145.8 
" clip-path="url(#p68244977c4)" style="fill: none; stroke: #000000; stroke-width: 1.5; stroke-linecap: square"/>
   </g>
   <g id="line2d_14">
    <path d="M 227.410714 134.712 
L 250.079464 145.8 
L 227.410714 156.888 
L 227.410714 134.712 
" clip-path="url(#p68244977c4)" style="fill: none; stroke: #000000; stroke-width: 1.5; stroke-linecap: square"/>
   </g>
   <g id="line2d_15">
    <path d="M 250.079464 156.888 
L 250.079464 134.712 
" clip-path="url(#p68244977c4)" style="fill: none; stroke: #000000; stroke-width: 2; stroke-linecap: square"/>
   </g>
   <g id="line2d_16">
    <path d="M 250.079464 145.8 
L 305.132143 145.8 
" clip-path="url(#p68244977c4)" style="fill: none; stroke: #000000; stroke-width: 1.5; stroke-linecap: square"/>
   </g>
   <g id="line2d_17">
    <path d="M 305.132143 145.8 
L 305.132143 73.728 
" clip-path="url(#p68244977c4)" style="fill: none; stroke: #000000; stroke-width: 1.5; stroke-linecap: square"/>
   </g>
   <g id="line2d_18">
    <path d="M 305.132143 109.764 
L 331.039286 109.764 
" clip-path="url(#p68244977c4)" style="fill: none; stroke: #000000; stroke-width: 1.5; stroke-linecap: square"/>
   </g>
   <g id="line2d_19">
    <path d="M 331.039286 126.396 
L 331.039286 93.132 
" clip-path="url(#p68244977c4)" style="fill: none; stroke: #000000; stroke-width: 1.5; stroke-linecap: square"/>
   </g>
   <g id="line2d_20">
    <path d="M 335.573036 120.852 
L 335.573036 98.676 
" clip-path="url(#p68244977c4)" style="fill: none; stroke: #000000; stroke-width: 1.5; stroke-linecap: square"/>
   </g>
   <g id="line2d_21">
    <path d="M 340.106786 115.308 
L 340.106786 104.22 
" clip-path="url(#p68244977c4)" style="fill: none; stroke: #000000; stroke-width: 1.5; stroke-linecap: square"/>
   </g>
   <g id="text_1">
    <text style="font-size: 10px; font-family: 'Times New Roman', 'Times', 'DejaVu Serif', serif; text-anchor: start" x="29.86875" y="97.0128" transform="rotate(-0 29.86875 97.0128)">W1 (Wavegen out)</text>
   </g>
   <g id="text_2">
    <!-- 330 $\Omega$ -->
    <g transform="translate(115.258929 57.096)">
     <text>
      <tspan x="0" y="-0.578125" style="font-size: 10px; font-family: 'DejaVu Serif'">3</tspan>
      <tspan x="6.362305" y="-0.578125" style="font-size: 10px; font-family: 'DejaVu Serif'">3</tspan>
      <tspan x="12.724609" y="-0.578125" style="font-size: 10px; font-family: 'DejaVu Serif'">0</tspan>
      <tspan x="19.086914" y="-0.578125" style="font-size: 10px; font-family: 'DejaVu Serif'"> </tspan>
      <tspan x="22.265625" y="-0.578125" style="font-size: 10px; font-family: 'DejaVu Sans'">Ω</tspan>
     </text>
    </g>
   </g>
   <g id="patch_2">
    <path d="M 245.187088 56.9842 
Q 250.079214 53.215393 254.085652 50.128904 
" style="fill: none; stroke: #000000; stroke-linecap: round"/>
    <path d="M 249.257423 51.07135 
L 254.085652 50.128904 
L 251.942671 54.556955 
" style="fill: none; stroke: #000000; stroke-linecap: round"/>
   </g>
   <g id="patch_3">
    <path d="M 245.187088 48.1138 
Q 250.079214 44.344993 254.085652 41.258504 
" style="fill: none; stroke: #000000; stroke-linecap: round"/>
    <path d="M 249.257423 42.20095 
L 254.085652 41.258504 
L 251.942671 45.686555 
" style="fill: none; stroke: #000000; stroke-linecap: round"/>
   </g>
   <g id="text_3">
    <text style="font-size: 10px; font-family: 'Times New Roman', 'Times', 'DejaVu Serif', serif; text-anchor: middle" x="238.42125" y="104.22" transform="rotate(-0 238.42125 104.22)">LED 1</text>
   </g>
   <g id="text_4">
    <text style="font-size: 10px; font-family: 'Times New Roman', 'Times', 'DejaVu Serif', serif; text-anchor: start" x="68.729464" y="34.907375" transform="rotate(-0 68.729464 34.907375)">to Scope 1+  (1− to GND)</text>
   </g>
   <g id="text_5">
    <text style="font-size: 10px; font-family: 'Times New Roman', 'Times', 'DejaVu Serif', serif; text-anchor: start" x="29.86875" y="169.0848" transform="rotate(-0 29.86875 169.0848)">DIO 0 (3.3 V logic)</text>
   </g>
   <g id="text_6">
    <!-- 330 $\Omega$ -->
    <g transform="translate(115.258929 129.168)">
     <text>
      <tspan x="0" y="-0.578125" style="font-size: 10px; font-family: 'DejaVu Serif'">3</tspan>
      <tspan x="6.362305" y="-0.578125" style="font-size: 10px; font-family: 'DejaVu Serif'">3</tspan>
      <tspan x="12.724609" y="-0.578125" style="font-size: 10px; font-family: 'DejaVu Serif'">0</tspan>
      <tspan x="19.086914" y="-0.578125" style="font-size: 10px; font-family: 'DejaVu Serif'"> </tspan>
      <tspan x="22.265625" y="-0.578125" style="font-size: 10px; font-family: 'DejaVu Sans'">Ω</tspan>
     </text>
    </g>
   </g>
   <g id="patch_4">
    <path d="M 245.187088 129.0562 
Q 250.079214 125.287393 254.085652 122.200904 
" style="fill: none; stroke: #000000; stroke-linecap: round"/>
    <path d="M 249.257423 123.14335 
L 254.085652 122.200904 
L 251.942671 126.628955 
" style="fill: none; stroke: #000000; stroke-linecap: round"/>
   </g>
   <g id="patch_5">
    <path d="M 245.187088 120.1858 
Q 250.079214 116.416993 254.085652 113.330504 
" style="fill: none; stroke: #000000; stroke-linecap: round"/>
    <path d="M 249.257423 114.27295 
L 254.085652 113.330504 
L 251.942671 117.758555 
" style="fill: none; stroke: #000000; stroke-linecap: round"/>
   </g>
   <g id="text_7">
    <text style="font-size: 10px; font-family: 'Times New Roman', 'Times', 'DejaVu Serif', serif; text-anchor: middle" x="238.42125" y="176.292" transform="rotate(-0 238.42125 176.292)">LED 2</text>
   </g>
   <g id="text_8">
    <text style="font-size: 10px; font-family: 'Times New Roman', 'Times', 'DejaVu Serif', serif; text-anchor: middle" x="334.277679" y="140.256" transform="rotate(-0 334.277679 140.256)">GND</text>
   </g>
   <g id="text_9">
    <text style="font-style: italic; font-size: 9px; font-family: 'Times New Roman', 'Times', 'DejaVu Serif', serif; text-anchor: start" x="136.735714" y="23.832" transform="rotate(-0 136.735714 23.832)">Anode (long leg) toward the resistor; cathode (short leg) to GND</text>
   </g>
  </g>
 </g>
 <defs>
  <clipPath id="p68244977c4">
   <rect x="7.2" y="7.2" width="362.7" height="177.408"/>
  </clipPath>
 </defs>
</svg>
